<?xml version="1.0" standalone="no"?>
<!DOCTYPE svg PUBLIC "-//W3C//DTD SVG 20010904//EN"
 "http://www.w3.org/TR/2001/REC-SVG-20010904/DTD/svg10.dtd">
<svg version="1.0" xmlns="http://www.w3.org/2000/svg"
 width="300.000000pt" height="225.000000pt" viewBox="0 0 300.000000 225.000000"
 preserveAspectRatio="xMidYMid meet">
<metadata>
Created by potrace 1.10, written by Peter Selinger 2001-2011
</metadata>
<g transform="translate(0.000000,225.000000) scale(0.100000,-0.100000)"
fill="#000000" stroke="none">
<path d="M1737 2142 c-5 -55 -4 -79 7 -100 10 -19 11 -33 4 -45 -5 -10 -7 -30
-3 -45 7 -35 -27 -74 -47 -54 -19 19 -267 16 -288 -3 -16 -14 -20 -14 -48 2
-26 15 -35 16 -51 6 -40 -25 -49 -9 -44 81 4 52 1 90 -5 102 -9 15 -11 1 -12
-64 l0 -83 -145 2 -145 2 0 23 c0 24 1 24 115 24 l115 0 -1 63 0 62 -17 -45
-17 -45 -90 -5 c-56 -3 -99 -11 -113 -20 -20 -13 -24 -13 -32 0 -5 8 -7 22 -4
30 26 63 3 77 -133 82 -79 3 -103 1 -103 -9 0 -10 28 -13 115 -13 l115 0 0
-25 0 -25 -140 0 -140 0 0 36 c0 21 -4 33 -10 29 -14 -9 -12 -48 4 -70 11 -16
11 -22 -3 -46 -14 -24 -14 -32 -3 -50 12 -18 11 -24 -2 -37 -14 -14 -18 -14
-48 1 -30 16 -42 16 -138 3 l-105 -14 123 -1 122 -1 0 -125 0 -125 -29 0 -29
0 5 100 6 100 -87 0 -86 0 2 -82 2 -83 3 73 4 72 54 0 c66 0 75 -12 75 -99 0
-33 5 -72 12 -86 10 -21 9 -29 -5 -42 -15 -15 -18 -15 -35 0 -20 19 -52 23
-52 7 0 -5 11 -10 25 -10 l25 0 0 -121 c0 -100 2 -120 14 -116 8 3 22 -3 32
-14 18 -20 59 -26 69 -9 4 7 13 6 27 -1 15 -8 19 -17 13 -37 -14 -58 -17 -234
-4 -258 9 -19 9 -26 0 -38 -9 -10 -11 -29 -6 -57 7 -41 7 -42 -16 -33 -30 11
-191 8 -244 -4 -32 -8 -14 -10 93 -11 l132 -1 0 -103 c0 -101 -1 -104 -25
-115 -14 -7 -28 -12 -30 -12 -3 0 -2 40 2 90 l6 90 -87 0 -86 0 2 -72 2 -73 3
64 4 63 54 -4 c30 -3 58 -8 62 -12 5 -4 10 -37 13 -73 6 -74 24 -98 59 -76 17
11 23 8 45 -18 14 -17 26 -34 26 -39 0 -17 -26 -16 -52 3 -26 20 -26 20 -57
-2 -29 -21 -31 -21 -56 -5 -20 13 -29 14 -38 5 -8 -8 -4 -11 16 -11 l27 0 0
-122 c0 -69 4 -117 9 -110 6 10 12 7 25 -12 21 -33 59 -34 81 -3 l16 22 19
-23 c18 -22 18 -25 3 -48 -12 -19 -15 -41 -11 -97 3 -40 10 -82 16 -92 9 -16
11 1 12 83 l0 102 140 0 140 0 0 -25 0 -25 -115 0 -116 0 3 -72 3 -73 110 -2
c82 -1 101 1 75 8 -19 5 -62 8 -95 6 l-60 -2 0 50 0 50 90 5 c50 3 101 11 114
19 22 12 26 11 37 -4 11 -14 10 -20 -2 -32 -18 -19 -18 -26 5 -54 16 -20 29
-23 109 -27 92 -4 106 -10 115 -47 2 -11 5 1 6 28 l1 47 -115 0 -115 0 0 25 0
25 143 0 142 0 0 -69 c0 -38 3 -67 8 -64 11 7 8 128 -4 140 -8 8 -6 19 5 40 8
17 12 40 9 52 -8 31 13 42 48 24 22 -11 58 -14 143 -11 95 2 117 6 135 22 20
18 22 18 39 3 21 -19 63 -22 79 -6 8 8 19 6 40 -9 28 -20 108 -31 236 -32 50
0 57 -2 57 -20 0 -18 -7 -20 -82 -21 -79 -1 -81 -1 -53 -14 45 -21 108 -19
138 5 22 17 26 18 37 5 11 -13 10 -21 -1 -41 -28 -52 23 -85 130 -83 80 2 91
-4 91 -55 0 -43 6 -28 13 32 l6 52 -114 0 -115 0 0 25 0 25 144 0 144 0 0 -71
c0 -38 2 -72 5 -75 2 -3 8 25 12 61 6 60 5 69 -15 90 -15 16 -19 29 -14 49 4
16 1 32 -6 41 -10 13 -9 19 5 35 22 24 38 25 55 5 14 -17 54 -19 173 -9 43 4
77 11 77 15 0 5 -54 9 -120 9 l-120 0 0 125 0 125 25 0 c25 0 25 0 25 -100 l0
-100 85 0 85 0 -2 78 -1 77 -6 -65 -6 -65 -50 -3 c-64 -4 -75 11 -75 97 -1 42
-6 73 -15 85 -13 17 -13 22 1 38 16 17 18 17 45 1 23 -14 31 -15 41 -5 9 9 6
12 -15 12 l-27 0 0 125 0 125 73 1 c49 0 66 3 52 9 -34 14 -115 11 -131 -5
-13 -13 -18 -12 -44 7 -26 19 -32 20 -60 8 -23 -10 -34 -10 -43 -1 -8 8 -8 14
1 23 16 16 17 249 0 266 -9 9 -9 17 1 34 6 13 10 39 9 58 -3 31 0 34 17 30 36
-8 229 0 239 10 7 7 -29 10 -107 10 l-117 0 0 125 0 125 25 0 c25 0 25 0 25
-100 l0 -100 85 0 85 0 -1 38 c-1 32 -2 33 -8 12 -6 -21 -13 -25 -53 -28 -65
-4 -78 12 -78 96 0 45 -5 75 -15 90 -14 19 -14 24 1 47 15 24 17 24 30 8 11
-15 13 1 14 110 l0 127 63 0 c44 0 58 3 47 10 -28 18 -95 12 -119 -11 l-23
-21 -14 21 c-16 22 -74 30 -74 11 0 -16 -30 -11 -37 6 -3 8 -1 20 6 27 12 12
14 131 2 192 -7 36 -8 32 -15 -47 -5 -48 -5 -99 -2 -113 l6 -25 -145 0 -145 0
0 25 0 25 116 0 117 0 -7 46 c-3 26 -6 60 -6 75 l0 29 -97 -2 -98 -2 85 -5 85
-6 3 -38 c5 -59 -8 -67 -103 -67 -61 0 -86 -4 -95 -15 -7 -8 -18 -15 -25 -15
-23 0 -39 28 -25 44 6 8 10 25 7 38 -4 20 -4 20 -6 -4 l-1 -28 -145 0 -144 0
-3 88 -3 87 -8 -73z m-827 -177 c0 -19 -5 -25 -23 -25 -13 0 -29 6 -36 13 -8
7 -11 7 -8 1 9 -15 -122 -17 -139 -3 -8 7 -14 6 -19 -1 -3 -5 -17 -10 -31 -10
-19 0 -24 5 -24 23 0 24 0 24 140 26 l140 1 0 -25z m1130 0 l0 -26 -140 2
c-77 0 -140 4 -141 7 0 4 -2 15 -4 25 -3 16 9 17 141 17 l144 0 0 -25z m-1086
-34 c7 -10 -22 -37 -30 -28 -9 8 3 37 15 37 5 0 12 -4 15 -9z m1130 1 c8 -13
-11 -35 -23 -28 -16 10 -14 36 3 36 8 0 17 -4 20 -8z m-1174 -67 l0 -25 -115
0 -115 0 0 -25 0 -25 115 0 115 0 0 -25 0 -25 -115 0 -115 0 0 -25 0 -25 115
0 115 0 0 -25 0 -25 -140 0 -140 0 0 125 0 125 140 0 140 0 0 -25z m338 -103
l3 -122 -31 0 -30 0 0 100 0 100 -31 0 -31 0 4 -100 3 -100 -32 0 -31 0 5 100
6 100 -32 0 -31 0 0 -100 0 -100 -30 0 -30 0 0 126 0 125 143 -3 142 -4 3
-122z m792 103 l0 -25 -115 0 -115 0 0 -25 0 -25 115 0 115 0 0 -25 0 -25
-115 0 -115 0 0 -25 0 -25 115 0 115 0 0 -25 0 -25 -145 0 -145 0 0 125 0 125
145 0 145 0 0 -25z m334 -17 c-3 -24 -10 -53 -16 -65 -8 -16 -7 -25 4 -36 7
-8 13 -27 12 -43 -1 -16 -3 -37 -3 -46 -1 -13 -9 -18 -31 -18 l-30 0 4 100 4
100 -29 0 c-32 0 -32 1 -30 -142 0 -58 0 -58 -30 -58 l-30 0 3 100 3 100 -30
0 -30 0 3 -100 3 -100 -30 0 -31 0 0 125 0 125 145 0 145 0 -6 -42z m104 -83
c-3 -122 -4 -125 -25 -125 -23 0 -23 2 -23 125 l0 125 25 0 25 0 -2 -125z
m-1118 -5 l0 -120 -30 0 -30 0 0 120 0 120 30 0 30 0 0 -120z m340 0 l0 -120
-30 0 -30 0 0 100 0 100 -85 0 -85 0 0 -100 0 -100 -27 0 -28 0 2 117 c2 65 3
119 3 121 0 1 63 2 140 2 l140 0 0 -120z m-96 34 c3 -9 6 -43 6 -75 0 -33 5
-70 11 -81 17 -31 -3 -42 -39 -21 -30 17 -32 17 -59 -3 -25 -19 -28 -28 -31
-90 -3 -79 -14 -96 -56 -92 l-31 3 -5 76 c-3 42 -11 83 -18 92 -21 25 -5 41
24 23 30 -20 53 -20 76 1 14 12 18 31 18 84 0 92 4 99 55 99 30 0 45 -5 49
-16z m-990 -163 c9 -15 -23 -36 -36 -23 -5 5 -7 15 -4 21 9 13 33 14 40 2z
m-44 -166 l0 -125 -27 0 -28 0 0 125 0 125 28 0 27 0 0 -125z m110 25 l0 -100
30 0 30 0 0 100 0 100 29 0 29 0 -5 -100 -6 -100 32 0 31 0 0 100 0 100 30 0
30 0 0 -120 c0 -66 -3 -120 -7 -120 -5 0 -68 -3 -140 -7 l-133 -5 0 126 0 126
25 0 c25 0 25 0 25 -100z m570 -25 l0 -124 -145 1 c-145 1 -145 1 -145 25 0
23 1 23 115 23 l115 0 0 25 0 25 -115 0 -115 0 0 25 0 25 115 0 115 0 0 25 0
25 -115 0 -115 0 0 25 0 25 145 0 145 0 0 -125z m110 40 c0 -54 -4 -85 -11
-85 -6 0 -4 -7 5 -15 10 -11 37 -15 95 -15 70 0 81 2 82 18 1 16 2 16 6 0 2
-9 13 -20 23 -23 10 -3 20 -15 23 -25 5 -19 -1 -20 -139 -20 l-144 0 0 125 0
125 30 0 30 0 0 -85z m216 18 c-3 -80 -11 -102 -34 -96 -15 3 -17 16 -14 83 3
76 5 80 27 80 23 0 24 -3 21 -67z m123 -58 l-2 -125 -28 0 -29 0 0 125 0 125
30 0 31 0 -2 -125z m111 25 l0 -100 31 0 31 0 -4 100 -3 100 28 0 27 0 0 -100
0 -100 30 0 30 0 0 100 0 100 30 0 30 0 0 -125 0 -125 -145 0 -145 0 0 125 0
125 30 0 30 0 0 -100z m570 -25 l0 -125 -145 0 -145 0 0 25 c0 24 0 24 113 27
104 3 112 4 112 23 0 19 -8 20 -112 23 -112 3 -113 3 -113 27 0 24 1 24 113
27 108 3 112 4 115 26 3 22 2 22 -112 22 l-116 0 0 25 0 25 145 0 145 0 0
-125z m-749 -151 c13 -16 44 -15 83 1 17 7 18 6 10 -11 -7 -15 -10 -195 -4
-289 1 -11 1 -31 -1 -45 -1 -14 2 -34 6 -44 7 -17 6 -18 -11 -10 -15 7 -180
10 -329 5 -14 0 -37 0 -52 1 -16 1 -37 -2 -47 -7 -17 -7 -18 -6 -10 21 9 28
10 182 3 317 -4 68 -2 76 18 56 16 -16 268 -8 285 9 16 16 33 15 49 -4z m-721
-49 l0 -25 -114 0 c-82 0 -116 -3 -119 -12 -3 -10 -9 -10 -23 -2 -29 17 -30
44 -2 45 23 1 23 1 -2 9 -15 5 31 8 118 9 l142 1 0 -25z m340 0 l0 -25 -146 0
c-120 0 -144 2 -135 13 8 10 7 17 -1 25 -9 9 22 12 135 12 l147 0 0 -25z m790
0 l0 -25 -114 0 -114 0 -4 -67 c-2 -38 -1 -71 2 -75 3 -4 33 -8 68 -9 58 -2
62 -4 62 -25 0 -24 -2 -24 -94 -24 l-94 0 -1 125 -1 125 145 0 145 0 0 -25z
m340 0 l0 -25 -145 0 c-138 0 -145 1 -145 20 0 13 5 18 15 14 8 -4 15 -1 15 5
0 7 42 11 130 11 l130 0 0 -25z m-1439 -56 c-14 -49 -12 -61 9 -85 21 -21 32
-24 96 -24 88 0 104 -5 104 -35 0 -29 -16 -35 -103 -35 -51 0 -75 -4 -88 -16
-10 -9 -25 -14 -34 -10 -15 5 -15 8 -1 28 21 30 20 44 -4 68 -16 16 -33 20
-94 20 -96 0 -106 4 -106 45 0 41 10 45 110 45 44 0 82 5 85 11 9 14 31 4 26
-12z m1149 16 c0 -3 -7 -17 -17 -31 -15 -24 -15 -27 4 -52 19 -25 25 -27 112
-30 l92 -3 -3 -42 -3 -42 -80 -3 c-44 -1 -90 -7 -102 -14 -19 -9 -26 -8 -43 7
-11 10 -33 18 -50 17 -26 -1 -30 3 -30 27 0 36 -30 62 -78 70 -33 6 -37 9 -37
36 l0 30 92 5 c54 3 97 10 105 18 12 12 38 17 38 7z m-1410 -75 l0 -60 115 0
115 0 0 -25 0 -25 -140 0 -140 0 0 78 c0 84 3 92 32 92 15 0 18 -8 18 -60z
m569 -83 l-1 -124 -86 -2 c-60 -1 -88 2 -94 11 -6 11 -10 10 -17 0 -5 -8 -23
-12 -47 -10 -32 2 -40 7 -42 26 -3 22 -2 22 112 22 l116 0 0 75 0 75 -115 0
-115 0 0 25 0 25 145 0 146 0 -2 -123z m1127 107 c-3 -9 -6 -65 -6 -125 l0
-109 -140 0 -140 0 0 25 0 25 115 0 115 0 1 48 c2 62 5 87 12 98 3 5 -49 8
-119 7 l-124 -3 0 25 0 25 146 0 c129 0 145 -2 140 -16z m-1466 -209 l0 -25
-140 0 -140 0 0 25 0 25 140 0 140 0 0 -25z m1130 0 l0 -25 -145 0 -145 0 0
24 0 24 145 1 145 2 0 -26z m-1130 -100 l0 -25 -115 0 -115 0 0 -25 0 -25 115
0 115 0 0 -25 0 -25 -115 0 -115 0 0 -25 0 -25 115 0 115 0 0 -25 0 -24 -140
0 -140 1 0 124 0 124 140 0 140 0 0 -25z m340 -100 l0 -125 -30 0 -30 0 0 100
0 100 -31 0 -31 0 4 -100 c3 -88 1 -100 -14 -100 -45 0 -48 7 -41 106 l6 94
-31 0 -32 0 0 -94 0 -94 -30 -4 -30 -5 0 124 0 123 145 0 145 0 0 -125z m110
2 l0 -124 -30 0 -30 0 0 124 0 123 30 0 30 0 0 -123z m336 -2 l0 -125 -28 0
-28 0 0 100 0 100 -85 0 -85 0 0 -100 0 -100 -30 0 -30 0 0 125 0 125 143 0
142 0 1 -125z m344 100 l0 -25 -115 0 -115 0 0 -25 0 -25 115 0 115 0 0 -25 0
-25 -115 0 -115 0 0 -25 0 -25 115 0 115 0 0 -25 0 -25 -145 0 -145 0 0 125 0
125 145 0 145 0 0 -25z m332 3 c2 -13 3 -59 2 -103 -3 -134 -1 -125 -34 -125
l-30 0 0 100 c0 100 0 100 -25 100 -25 0 -25 0 -25 -100 l0 -100 -30 0 -30 0
0 100 c0 100 0 100 -25 100 -25 0 -25 0 -25 -100 l0 -100 -30 0 -30 0 0 125 0
125 139 0 c136 0 139 0 143 -22z m108 -103 l0 -125 -25 0 -25 0 0 125 0 125
25 0 25 0 0 -125z m-880 -46 c7 -107 37 -138 105 -107 21 10 29 9 42 -5 16
-16 16 -18 -2 -32 -14 -10 -32 -14 -57 -10 -23 3 -38 1 -38 -5 0 -5 11 -10 25
-10 l25 0 0 -105 0 -105 -31 0 -30 0 1 98 c2 134 2 131 -16 107 -10 -12 -18
-16 -21 -9 -2 7 -14 10 -26 7 -18 -4 -19 -3 -7 6 13 9 13 11 -2 11 -10 0 -18
-4 -18 -9 0 -5 -10 -11 -22 -13 -19 -2 -25 -12 -34 -58 l-10 -55 -45 0 c-42 0
-44 2 -47 30 -6 71 -14 94 -37 109 -20 13 -29 14 -50 4 -21 -9 -28 -8 -45 7
-19 17 -19 20 -4 36 15 17 18 17 41 2 24 -16 28 -16 55 0 27 15 32 15 51 2 32
-22 63 -18 86 11 17 21 21 41 21 95 0 73 5 79 55 76 l30 -2 5 -76z m816 -118
c-22 -21 -46 0 -26 24 10 12 16 13 27 3 12 -10 12 -13 -1 -27z m-1453 14 c18
-13 18 -14 0 -39 -23 -32 -27 -32 -47 -2 -14 23 -14 26 0 40 19 19 24 19 47 1z
m115 -2 c15 -9 28 -18 30 -19 2 -1 -1 -11 -7 -22 -10 -19 -9 -19 24 -9 25 7
42 7 60 -1 14 -7 35 -12 45 -12 19 0 20 -8 20 -105 l0 -105 -145 0 -145 0 0
25 0 25 115 0 115 0 0 25 0 25 -115 0 -115 0 0 25 0 25 115 0 115 0 0 25 c0
24 -2 25 -67 25 -36 0 -63 3 -60 7 4 3 -3 11 -15 17 -30 15 -35 66 -7 66 5 0
22 -8 37 -17z m-512 -125 c-2 -57 -5 -113 -5 -125 -1 -18 -7 -23 -26 -23 l-25
0 1 125 1 125 29 0 30 0 -5 -102z m114 2 l0 -100 30 0 30 0 0 101 0 100 26 -3
27 -3 -2 -97 -2 -98 33 0 33 0 -3 80 c-4 72 -2 80 14 81 17 1 17 2 2 6 -10 2
-18 10 -18 17 0 17 31 16 48 -1 11 -11 11 -13 0 -13 -9 0 -10 -2 -2 -8 8 -4
12 -45 13 -109 l2 -103 -143 1 c-79 1 -135 3 -125 6 9 2 17 12 16 21 0 11 -2
12 -6 5 -8 -20 -23 -15 -23 7 0 11 7 20 15 20 8 0 15 5 15 10 0 6 -7 13 -15
16 -12 5 -15 24 -15 85 0 78 0 79 25 79 25 0 25 0 25 -100z m1240 0 l0 -100
30 0 30 0 0 100 0 100 30 0 30 0 0 -125 0 -125 -145 0 -145 0 0 104 c0 82 3
105 15 109 8 4 17 1 21 -5 4 -7 9 -6 15 3 5 9 9 -21 9 -73 l0 -88 29 0 30 0 3
86 c2 47 -1 92 -5 100 -6 11 -1 14 23 14 l30 0 0 -100z m455 90 c3 -5 3 -10
-2 -10 -4 0 -7 -36 -5 -80 2 -44 1 -96 -2 -115 l-7 -35 -134 0 -135 0 0 25 0
25 115 0 115 0 0 25 0 25 -115 0 -115 0 0 25 0 25 115 0 115 0 0 25 0 25 -115
0 -115 0 0 25 0 25 139 0 c83 0 142 -4 146 -10z m-1342 -20 c16 -20 16 -20
-31 -20 -34 0 -43 3 -32 10 8 5 11 10 5 11 -9 0 22 16 35 18 3 1 13 -8 23 -19z
m287 -11 c0 -8 4 -9 13 0 22 18 27 2 27 -81 l0 -78 85 0 85 0 0 70 c0 68 1 70
25 70 25 0 25 0 25 -95 l0 -95 -140 0 -140 0 0 110 c0 67 4 110 10 110 6 0 10
-5 10 -11z m767 -235 c3 -8 -1 -22 -9 -30 -13 -13 -16 -13 -28 0 -10 13 -10
19 0 31 16 19 29 19 37 -1z m-847 -49 l0 -25 -140 0 -140 0 0 25 0 25 140 0
140 0 0 -25z m1113 -5 c5 -19 0 -20 -129 -20 -126 0 -134 1 -134 19 0 18 8 20
129 20 121 1 129 0 134 -19z"/>
<path d="M1408 1249 c-12 -7 -15 -32 -16 -117 0 -60 4 -115 10 -123 7 -10 8
-8 5 9 -10 43 1 52 59 52 43 0 54 3 54 16 0 14 -8 16 -50 11 l-50 -6 0 31 0
31 50 -7 c46 -6 50 -5 50 15 0 19 -5 20 -57 17 l-58 -3 0 30 0 30 95 1 95 2
-1 -112 -1 -111 -87 -3 c-109 -4 -114 -22 -6 -22 112 0 120 9 120 135 0 127
-9 137 -119 134 -43 -1 -85 -6 -93 -10z"/>
<path d="M1811 2143 l-1 -53 113 0 c76 0 107 3 97 10 -8 5 -52 10 -96 10 -89
0 -99 6 -107 55 -2 19 -5 11 -6 -22z"/>
<path d="M2594 1809 c3 -17 6 -64 7 -103 1 -89 17 -53 18 43 1 48 5 67 19 77
15 12 13 13 -17 14 -32 0 -33 -1 -27 -31z"/>
<path d="M385 1568 c-3 -13 -6 -54 -7 -93 -3 -64 -5 -70 -28 -76 -21 -6 -20
-7 13 -8 l37 -1 0 100 c0 98 -5 122 -15 78z"/>
<path d="M375 1340 c-38 -7 -38 -7 18 -9 32 0 57 3 57 9 0 11 -14 11 -75 0z"/>
<path d="M2594 803 c3 -21 6 -67 7 -103 1 -86 17 -42 18 52 l1 66 38 10 37 10
-54 1 -54 1 7 -37z"/>
<path d="M385 560 c-4 -17 -6 -54 -5 -83 3 -73 3 -75 -22 -80 -17 -3 -14 -5
10 -6 l32 -1 0 100 c0 55 -2 100 -4 100 -3 0 -7 -14 -11 -30z"/>
<path d="M1736 228 c-8 -32 -6 -99 4 -123 6 -13 9 7 9 63 1 84 -2 99 -13 60z"/>
<path d="M1810 165 c0 -61 3 -75 16 -75 8 0 13 4 10 8 -3 5 -6 38 -7 75 -3 92
-19 85 -19 -8z"/>
<path d="M1893 93 c26 -2 68 -2 95 0 26 2 4 3 -48 3 -52 0 -74 -1 -47 -3z"/>
<path d="M770 38 c0 -11 82 -10 100 2 9 6 -5 8 -43 7 -31 -1 -57 -5 -57 -9z"/>
</g>
</svg>
